<svg xmlns="http://www.w3.org/2000/svg" fill="#f08808" viewBox="0 0 320 320"><path d="M292.697 19.995H27.303C12.223 19.995 0 32.219 0 47.299v163.822c0 15.079 12.223 27.304 27.303 27.304H133.79v24.7h-21.544c-10.185 0-18.439 8.255-18.439 18.44 0 10.184 8.255 18.44 18.439 18.44h95.508c10.186 0 18.439-8.256 18.439-18.44 0-10.185-8.254-18.44-18.439-18.44H186.21v-24.7h106.487c15.08 0 27.303-12.225 27.303-27.304V47.299c0-15.08-12.223-27.304-27.303-27.304zm-4.369 186.757H31.672V51.667h256.656v155.085z"/><path d="M131.135 159.999a7 7 0 0 1-4.494-1.622L99.512 135.86a7.04 7.04 0 0 1 0-10.834l27.129-22.517a7.04 7.04 0 0 1 9.912.921 7.038 7.038 0 0 1-.92 9.913l-20.603 17.099 20.603 17.102a7.04 7.04 0 0 1-4.498 12.455zM188.867 159.999a7.04 7.04 0 0 1-4.5-12.456l20.602-17.102-20.602-17.099a7.04 7.04 0 0 1 8.993-10.834l27.127 22.517a7.034 7.034 0 0 1 0 10.834l-27.127 22.517a7.011 7.011 0 0 1-4.493 1.623zM147.072 182.146a7.038 7.038 0 0 1-6.764-8.999l25.859-89.324a7.043 7.043 0 0 1 8.721-4.805 7.044 7.044 0 0 1 4.805 8.722l-25.861 89.324a7.043 7.043 0 0 1-6.76 5.082z"/></svg>
